<mxfile host="65bd71144e">
    <diagram id="_EJG4oYxqdX2drHbQtYK" name="Page-1">
        <mxGraphModel dx="771" dy="532" grid="1" gridSize="10" guides="1" tooltips="1" connect="1" arrows="1" fold="1" page="1" pageScale="1" pageWidth="850" pageHeight="1100" math="0" shadow="0">
            <root>
                <mxCell id="0"/>
                <mxCell id="1" parent="0"/>
                <mxCell id="55" value="" style="rounded=0;whiteSpace=wrap;html=1;strokeColor=#000000;fillColor=#191C1F;" parent="1" vertex="1">
                    <mxGeometry x="80" y="90" width="690" height="460" as="geometry"/>
                </mxCell>
                <mxCell id="2" value="photos" style="swimlane;fontStyle=1;childLayout=stackLayout;horizontal=1;startSize=30;horizontalStack=0;resizeParent=1;resizeParentMax=0;resizeLast=0;collapsible=1;marginBottom=0;fillColor=#9FAFC2;strokeColor=#2A2F36;fontColor=#ffffff;" parent="1" vertex="1">
                    <mxGeometry x="95" y="200" width="140" height="120" as="geometry">
                        <mxRectangle x="95" y="200" width="70" height="30" as="alternateBounds"/>
                    </mxGeometry>
                </mxCell>
                <mxCell id="3" value="photo_id   MEDIUMINT" style="text;align=left;verticalAlign=middle;spacingLeft=4;spacingRight=4;overflow=hidden;points=[[0,0.5],[1,0.5]];portConstraint=eastwest;rotatable=0;fontStyle=1;fillColor=#647687;strokeColor=#2A2F36;fontColor=#ffffff;" parent="2" vertex="1">
                    <mxGeometry y="30" width="140" height="30" as="geometry"/>
                </mxCell>
                <mxCell id="4" value="url   VARCHAR(255)" style="text;align=left;verticalAlign=middle;spacingLeft=4;spacingRight=4;overflow=hidden;points=[[0,0.5],[1,0.5]];portConstraint=eastwest;rotatable=0;fillColor=#647687;strokeColor=#2A2F36;fontColor=#ffffff;" parent="2" vertex="1">
                    <mxGeometry y="60" width="140" height="30" as="geometry"/>
                </mxCell>
                <mxCell id="5" value="review_id   MEDIUMINT" style="text;align=left;verticalAlign=middle;spacingLeft=4;spacingRight=4;overflow=hidden;points=[[0,0.5],[1,0.5]];portConstraint=eastwest;rotatable=0;fillColor=#647687;strokeColor=#2A2F36;fontColor=#ffffff;" parent="2" vertex="1">
                    <mxGeometry y="90" width="140" height="30" as="geometry"/>
                </mxCell>
                <mxCell id="7" value="reviews" style="swimlane;fontStyle=1;childLayout=stackLayout;horizontal=1;startSize=30;horizontalStack=0;resizeParent=1;resizeParentMax=0;resizeLast=0;collapsible=1;marginBottom=0;fillColor=#9FAFC2;strokeColor=#2A2F36;fontColor=#ffffff;" parent="1" vertex="1">
                    <mxGeometry x="295" y="170" width="200" height="360" as="geometry"/>
                </mxCell>
                <mxCell id="8" value="review_id   MEDIUMINT" style="text;align=left;verticalAlign=middle;spacingLeft=4;spacingRight=4;overflow=hidden;points=[[0,0.5],[1,0.5]];portConstraint=eastwest;rotatable=0;fontStyle=1;fillColor=#647687;strokeColor=#2A2F36;fontColor=#ffffff;" parent="7" vertex="1">
                    <mxGeometry y="30" width="200" height="30" as="geometry"/>
                </mxCell>
                <mxCell id="9" value="product_id    MEDIUMINT" style="text;align=left;verticalAlign=middle;spacingLeft=4;spacingRight=4;overflow=hidden;points=[[0,0.5],[1,0.5]];portConstraint=eastwest;rotatable=0;fillColor=#647687;strokeColor=#2A2F36;fontColor=#ffffff;" parent="7" vertex="1">
                    <mxGeometry y="60" width="200" height="30" as="geometry"/>
                </mxCell>
                <mxCell id="10" value="rating    TINYINT(1)" style="text;align=left;verticalAlign=middle;spacingLeft=4;spacingRight=4;overflow=hidden;points=[[0,0.5],[1,0.5]];portConstraint=eastwest;rotatable=0;fillColor=#647687;strokeColor=#2A2F36;fontColor=#ffffff;" parent="7" vertex="1">
                    <mxGeometry y="90" width="200" height="30" as="geometry"/>
                </mxCell>
                <mxCell id="11" value="summary    VARCHAR(60)" style="text;align=left;verticalAlign=middle;spacingLeft=4;spacingRight=4;overflow=hidden;points=[[0,0.5],[1,0.5]];portConstraint=eastwest;rotatable=0;fillColor=#647687;strokeColor=#2A2F36;fontColor=#ffffff;" parent="7" vertex="1">
                    <mxGeometry y="120" width="200" height="30" as="geometry"/>
                </mxCell>
                <mxCell id="13" value="recommend BIT(1)" style="text;align=left;verticalAlign=middle;spacingLeft=4;spacingRight=4;overflow=hidden;points=[[0,0.5],[1,0.5]];portConstraint=eastwest;rotatable=0;fillColor=#647687;strokeColor=#2A2F36;fontColor=#ffffff;" parent="7" vertex="1">
                    <mxGeometry y="150" width="200" height="30" as="geometry"/>
                </mxCell>
                <mxCell id="14" value="body    VARCHAR(1000)" style="text;align=left;verticalAlign=middle;spacingLeft=4;spacingRight=4;overflow=hidden;points=[[0,0.5],[1,0.5]];portConstraint=eastwest;rotatable=0;fillColor=#647687;strokeColor=#2A2F36;fontColor=#ffffff;" parent="7" vertex="1">
                    <mxGeometry y="180" width="200" height="30" as="geometry"/>
                </mxCell>
                <mxCell id="15" value="date    DATE (CURRENT_DATE)" style="text;align=left;verticalAlign=middle;spacingLeft=4;spacingRight=4;overflow=hidden;points=[[0,0.5],[1,0.5]];portConstraint=eastwest;rotatable=0;fillColor=#647687;strokeColor=#2A2F36;fontColor=#ffffff;" parent="7" vertex="1">
                    <mxGeometry y="210" width="200" height="30" as="geometry"/>
                </mxCell>
                <mxCell id="16" value="helpfulness    SMALLINT" style="text;align=left;verticalAlign=middle;spacingLeft=4;spacingRight=4;overflow=hidden;points=[[0,0.5],[1,0.5]];portConstraint=eastwest;rotatable=0;fillColor=#647687;strokeColor=#2A2F36;fontColor=#ffffff;" parent="7" vertex="1">
                    <mxGeometry y="240" width="200" height="30" as="geometry"/>
                </mxCell>
                <mxCell id="17" value="reviewer_id    MEDIUMINT" style="text;align=left;verticalAlign=middle;spacingLeft=4;spacingRight=4;overflow=hidden;points=[[0,0.5],[1,0.5]];portConstraint=eastwest;rotatable=0;fillColor=#647687;strokeColor=#2A2F36;fontColor=#ffffff;" parent="7" vertex="1">
                    <mxGeometry y="270" width="200" height="30" as="geometry"/>
                </mxCell>
                <mxCell id="18" value="reported    BIT(1)" style="text;align=left;verticalAlign=middle;spacingLeft=4;spacingRight=4;overflow=hidden;points=[[0,0.5],[1,0.5]];portConstraint=eastwest;rotatable=0;fillColor=#647687;strokeColor=#2A2F36;fontColor=#ffffff;" parent="7" vertex="1">
                    <mxGeometry y="300" width="200" height="30" as="geometry"/>
                </mxCell>
                <mxCell id="59" value="response    VARCHAR(150)" style="text;align=left;verticalAlign=middle;spacingLeft=4;spacingRight=4;overflow=hidden;points=[[0,0.5],[1,0.5]];portConstraint=eastwest;rotatable=0;fillColor=#647687;strokeColor=#2A2F36;fontColor=#ffffff;" parent="7" vertex="1">
                    <mxGeometry y="330" width="200" height="30" as="geometry"/>
                </mxCell>
                <mxCell id="19" value="users" style="swimlane;fontStyle=1;childLayout=stackLayout;horizontal=1;startSize=30;horizontalStack=0;resizeParent=1;resizeParentMax=0;resizeLast=0;collapsible=1;marginBottom=0;fillColor=#9FAFC2;strokeColor=#2A2F36;fontColor=#ffffff;" parent="1" vertex="1">
                    <mxGeometry x="95" y="410" width="140" height="120" as="geometry"/>
                </mxCell>
                <mxCell id="20" value="user_id    MEDIUMINT" style="text;align=left;verticalAlign=middle;spacingLeft=4;spacingRight=4;overflow=hidden;points=[[0,0.5],[1,0.5]];portConstraint=eastwest;rotatable=0;fontStyle=1;fillColor=#647687;strokeColor=#2A2F36;fontColor=#ffffff;" parent="19" vertex="1">
                    <mxGeometry y="30" width="140" height="30" as="geometry"/>
                </mxCell>
                <mxCell id="21" value="name    VARCHAR(25)" style="text;align=left;verticalAlign=middle;spacingLeft=4;spacingRight=4;overflow=hidden;points=[[0,0.5],[1,0.5]];portConstraint=eastwest;rotatable=0;fillColor=#647687;strokeColor=#2A2F36;fontColor=#ffffff;" parent="19" vertex="1">
                    <mxGeometry y="60" width="140" height="30" as="geometry"/>
                </mxCell>
                <mxCell id="22" value="email    VARCHAR(150)" style="text;align=left;verticalAlign=middle;spacingLeft=4;spacingRight=4;overflow=hidden;points=[[0,0.5],[1,0.5]];portConstraint=eastwest;rotatable=0;fillColor=#647687;strokeColor=#2A2F36;fontColor=#ffffff;" parent="19" vertex="1">
                    <mxGeometry y="90" width="140" height="30" as="geometry"/>
                </mxCell>
                <mxCell id="23" value="" style="edgeStyle=none;html=1;entryX=0;entryY=0.5;entryDx=0;entryDy=0;exitX=1;exitY=0.5;exitDx=0;exitDy=0;curved=1;endArrow=diamond;endFill=1;startArrow=diamond;startFill=1;fillColor=#dae8fc;strokeColor=#99CCFF;" parent="1" source="5" target="8" edge="1">
                    <mxGeometry relative="1" as="geometry">
                        <Array as="points">
                            <mxPoint x="275" y="305"/>
                        </Array>
                    </mxGeometry>
                </mxCell>
                <mxCell id="24" value="" style="edgeStyle=none;curved=1;html=1;startArrow=diamond;startFill=1;endArrow=diamond;endFill=1;exitX=1;exitY=0.5;exitDx=0;exitDy=0;entryX=0;entryY=0.5;entryDx=0;entryDy=0;fillColor=#dae8fc;strokeColor=#99CCFF;" parent="1" source="20" target="17" edge="1">
                    <mxGeometry relative="1" as="geometry"/>
                </mxCell>
                <mxCell id="25" value="characteristics" style="swimlane;fontStyle=1;childLayout=stackLayout;horizontal=1;startSize=30;horizontalStack=0;resizeParent=1;resizeParentMax=0;resizeLast=0;collapsible=1;marginBottom=0;fillColor=#9FAFC2;strokeColor=#2A2F36;fontColor=#ffffff;" parent="1" vertex="1">
                    <mxGeometry x="540" y="340" width="180" height="120" as="geometry"/>
                </mxCell>
                <mxCell id="27" value="id   MEDIUMINT" style="text;align=left;verticalAlign=middle;spacingLeft=4;spacingRight=4;overflow=hidden;points=[[0,0.5],[1,0.5]];portConstraint=eastwest;rotatable=0;fontStyle=1;fillColor=#647687;strokeColor=#2A2F36;fontColor=#ffffff;" parent="25" vertex="1">
                    <mxGeometry y="30" width="180" height="30" as="geometry"/>
                </mxCell>
                <mxCell id="73" value="product_id     MEDIUMINT" style="text;align=left;verticalAlign=middle;spacingLeft=4;spacingRight=4;overflow=hidden;points=[[0,0.5],[1,0.5]];portConstraint=eastwest;rotatable=0;fontStyle=0;fillColor=#647687;strokeColor=#2A2F36;fontColor=#ffffff;" parent="25" vertex="1">
                    <mxGeometry y="60" width="180" height="30" as="geometry"/>
                </mxCell>
                <mxCell id="35" value="name     VARCHAR(7)" style="text;align=left;verticalAlign=middle;spacingLeft=4;spacingRight=4;overflow=hidden;points=[[0,0.5],[1,0.5]];portConstraint=eastwest;rotatable=0;fillColor=#647687;strokeColor=#2A2F36;fontColor=#ffffff;" parent="25" vertex="1">
                    <mxGeometry y="90" width="180" height="30" as="geometry"/>
                </mxCell>
                <mxCell id="44" value="characteristic_reviews" style="swimlane;fontStyle=1;childLayout=stackLayout;horizontal=1;startSize=30;horizontalStack=0;resizeParent=1;resizeParentMax=0;resizeLast=0;collapsible=1;marginBottom=0;fillColor=#9FAFC2;strokeColor=#2A2F36;fontColor=#ffffff;" parent="1" vertex="1">
                    <mxGeometry x="540" y="170" width="180" height="150" as="geometry"/>
                </mxCell>
                <mxCell id="45" value="id    MEDIUMINT    " style="text;align=left;verticalAlign=middle;spacingLeft=4;spacingRight=4;overflow=hidden;points=[[0,0.5],[1,0.5]];portConstraint=eastwest;rotatable=0;fontStyle=1;fillColor=#647687;strokeColor=#2A2F36;fontColor=#ffffff;" parent="44" vertex="1">
                    <mxGeometry y="30" width="180" height="30" as="geometry"/>
                </mxCell>
                <mxCell id="46" value="characteristic_id MEDIUMINT   " style="text;align=left;verticalAlign=middle;spacingLeft=4;spacingRight=4;overflow=hidden;points=[[0,0.5],[1,0.5]];portConstraint=eastwest;rotatable=0;fillColor=#647687;strokeColor=#2A2F36;fontColor=#ffffff;" parent="44" vertex="1">
                    <mxGeometry y="60" width="180" height="30" as="geometry"/>
                </mxCell>
                <mxCell id="47" value="review_id    MEDIUMINT" style="text;align=left;verticalAlign=middle;spacingLeft=4;spacingRight=4;overflow=hidden;points=[[0,0.5],[1,0.5]];portConstraint=eastwest;rotatable=0;fillColor=#647687;strokeColor=#2A2F36;fontColor=#ffffff;" parent="44" vertex="1">
                    <mxGeometry y="90" width="180" height="30" as="geometry"/>
                </mxCell>
                <mxCell id="53" value="value    TINYINT(1)" style="text;align=left;verticalAlign=middle;spacingLeft=4;spacingRight=4;overflow=hidden;points=[[0,0.5],[1,0.5]];portConstraint=eastwest;rotatable=0;fillColor=#647687;strokeColor=#2A2F36;fontColor=#ffffff;" parent="44" vertex="1">
                    <mxGeometry y="120" width="180" height="30" as="geometry"/>
                </mxCell>
                <mxCell id="56" value="&lt;h1&gt;atelier-optimization: reviews mySQL schema&lt;/h1&gt;&lt;p&gt;&lt;br&gt;&lt;/p&gt;" style="text;html=1;strokeColor=none;fillColor=none;spacing=5;spacingTop=-20;whiteSpace=wrap;overflow=hidden;rounded=0;fontColor=#FFFFFF;" parent="1" vertex="1">
                    <mxGeometry x="162.5" y="110" width="555" height="50" as="geometry"/>
                </mxCell>
                <mxCell id="60" value="" style="endArrow=diamond;startArrow=diamond;html=1;exitX=1;exitY=0.5;exitDx=0;exitDy=0;startFill=1;endFill=1;strokeColor=#99CCFF;entryX=0;entryY=0.5;entryDx=0;entryDy=0;curved=1;" parent="1" source="8" target="47" edge="1">
                    <mxGeometry width="50" height="50" relative="1" as="geometry">
                        <mxPoint x="510" y="350" as="sourcePoint"/>
                        <mxPoint x="560" y="300" as="targetPoint"/>
                        <Array as="points">
                            <mxPoint x="520" y="260"/>
                        </Array>
                    </mxGeometry>
                </mxCell>
                <mxCell id="65" value="" style="endArrow=diamond;startArrow=diamond;html=1;strokeColor=#99CCFF;entryX=1;entryY=0.5;entryDx=0;entryDy=0;exitX=1;exitY=0.5;exitDx=0;exitDy=0;startFill=1;endFill=1;curved=1;" parent="1" source="27" target="46" edge="1">
                    <mxGeometry width="50" height="50" relative="1" as="geometry">
                        <mxPoint x="510" y="350" as="sourcePoint"/>
                        <mxPoint x="560" y="300" as="targetPoint"/>
                        <Array as="points">
                            <mxPoint x="750" y="350"/>
                            <mxPoint x="750" y="280"/>
                        </Array>
                    </mxGeometry>
                </mxCell>
            </root>
        </mxGraphModel>
    </diagram>
</mxfile>